<svg xmlns="http://www.w3.org/2000/svg" xmlns:xlink="http://www.w3.org/1999/xlink" width="150" zoomAndPan="magnify" viewBox="0 0 112.5 56.249996" height="75" preserveAspectRatio="xMidYMid meet" version="1.0"><defs><g/></defs><g fill="#922724" fill-opacity="1"><g transform="translate(7.612197, 31.244195)"><g><path d="M 6.328125 -2.15625 C 6.691406 -2.15625 7.046875 -2.207031 7.390625 -2.3125 C 7.734375 -2.425781 7.984375 -2.535156 8.140625 -2.640625 L 8.390625 -2.796875 L 9.40625 -0.78125 C 9.363281 -0.75 9.3125 -0.710938 9.25 -0.671875 C 9.195312 -0.628906 9.0625 -0.550781 8.84375 -0.4375 C 8.632812 -0.320312 8.40625 -0.222656 8.15625 -0.140625 C 7.914062 -0.0546875 7.59375 0.015625 7.1875 0.078125 C 6.789062 0.148438 6.382812 0.1875 5.96875 0.1875 C 4.988281 0.1875 4.0625 -0.0507812 3.1875 -0.53125 C 2.320312 -1.007812 1.625 -1.664062 1.09375 -2.5 C 0.5625 -3.332031 0.296875 -4.238281 0.296875 -5.21875 C 0.296875 -5.945312 0.453125 -6.648438 0.765625 -7.328125 C 1.078125 -8.003906 1.492188 -8.582031 2.015625 -9.0625 C 2.535156 -9.550781 3.140625 -9.9375 3.828125 -10.21875 C 4.523438 -10.507812 5.238281 -10.65625 5.96875 -10.65625 C 6.644531 -10.65625 7.265625 -10.570312 7.828125 -10.40625 C 8.398438 -10.25 8.804688 -10.09375 9.046875 -9.9375 L 9.40625 -9.6875 L 8.390625 -7.65625 C 8.328125 -7.707031 8.234375 -7.769531 8.109375 -7.84375 C 7.992188 -7.914062 7.757812 -8.007812 7.40625 -8.125 C 7.050781 -8.25 6.691406 -8.3125 6.328125 -8.3125 C 5.753906 -8.3125 5.238281 -8.21875 4.78125 -8.03125 C 4.320312 -7.84375 3.957031 -7.597656 3.6875 -7.296875 C 3.425781 -6.992188 3.222656 -6.664062 3.078125 -6.3125 C 2.941406 -5.957031 2.875 -5.597656 2.875 -5.234375 C 2.875 -4.441406 3.171875 -3.726562 3.765625 -3.09375 C 4.367188 -2.46875 5.222656 -2.15625 6.328125 -2.15625 Z M 6.328125 -2.15625 "/></g></g></g><g fill="#922724" fill-opacity="1"><g transform="translate(16.532034, 31.244195)"><g><path d="M 0.96875 -10.140625 C 1.238281 -10.398438 1.554688 -10.53125 1.921875 -10.53125 C 2.285156 -10.53125 2.597656 -10.398438 2.859375 -10.140625 C 3.117188 -9.878906 3.25 -9.566406 3.25 -9.203125 C 3.25 -8.835938 3.117188 -8.519531 2.859375 -8.25 C 2.597656 -7.988281 2.285156 -7.859375 1.921875 -7.859375 C 1.554688 -7.859375 1.238281 -7.988281 0.96875 -8.25 C 0.707031 -8.519531 0.578125 -8.835938 0.578125 -9.203125 C 0.578125 -9.566406 0.707031 -9.878906 0.96875 -10.140625 Z M 0.765625 -6.515625 L 0.765625 0 L 3 0 L 3 -6.515625 Z M 0.765625 -6.515625 "/></g></g></g><g fill="#922724" fill-opacity="1"><g transform="translate(19.729472, 31.244195)"><g><path d="M 0.765625 0 L 0.765625 -6.515625 L 3 -6.515625 L 3 -5.828125 L 3.03125 -5.828125 C 3.613281 -6.410156 4.234375 -6.703125 4.890625 -6.703125 C 5.210938 -6.703125 5.53125 -6.65625 5.84375 -6.5625 C 6.164062 -6.476562 6.472656 -6.347656 6.765625 -6.171875 C 7.054688 -5.992188 7.289062 -5.742188 7.46875 -5.421875 C 7.65625 -5.097656 7.75 -4.71875 7.75 -4.28125 L 7.75 0 L 5.5 0 L 5.5 -3.671875 C 5.5 -4.015625 5.390625 -4.3125 5.171875 -4.5625 C 4.960938 -4.820312 4.6875 -4.953125 4.34375 -4.953125 C 4 -4.953125 3.6875 -4.816406 3.40625 -4.546875 C 3.132812 -4.285156 3 -3.992188 3 -3.671875 L 3 0 Z M 0.765625 0 "/></g></g></g><g fill="#922724" fill-opacity="1"><g transform="translate(27.481991, 31.244195)"><g><path d="M 7.34375 -2.9375 L 2.625 -2.9375 C 2.625 -2.488281 2.769531 -2.148438 3.0625 -1.921875 C 3.363281 -1.703125 3.6875 -1.59375 4.03125 -1.59375 C 4.394531 -1.59375 4.679688 -1.640625 4.890625 -1.734375 C 5.109375 -1.835938 5.351562 -2.035156 5.625 -2.328125 L 7.25 -1.515625 C 6.570312 -0.378906 5.445312 0.1875 3.875 0.1875 C 2.882812 0.1875 2.039062 -0.144531 1.34375 -0.8125 C 0.644531 -1.488281 0.296875 -2.300781 0.296875 -3.25 C 0.296875 -4.195312 0.644531 -5.007812 1.34375 -5.6875 C 2.039062 -6.363281 2.882812 -6.703125 3.875 -6.703125 C 4.90625 -6.703125 5.742188 -6.398438 6.390625 -5.796875 C 7.035156 -5.203125 7.359375 -4.351562 7.359375 -3.25 C 7.359375 -3.09375 7.351562 -2.988281 7.34375 -2.9375 Z M 2.6875 -4.1875 L 5.15625 -4.1875 C 5.113281 -4.519531 4.984375 -4.773438 4.765625 -4.953125 C 4.546875 -5.140625 4.269531 -5.234375 3.9375 -5.234375 C 3.5625 -5.234375 3.265625 -5.132812 3.046875 -4.9375 C 2.828125 -4.75 2.707031 -4.5 2.6875 -4.1875 Z M 2.6875 -4.1875 "/></g></g></g><g fill="#922724" fill-opacity="1"><g transform="translate(34.498589, 31.244195)"><g/></g></g><g fill="#922724" fill-opacity="1"><g transform="translate(37.328069, 31.244195)"><g><path d="M 0.09375 -8.375 L 0.09375 -10.46875 L 7.453125 -10.46875 L 7.453125 -8.375 L 4.96875 -8.375 L 4.96875 0 L 2.59375 0 L 2.59375 -8.375 Z M 0.09375 -8.375 "/></g></g></g><g fill="#922724" fill-opacity="1"><g transform="translate(44.255851, 31.244195)"><g><path d="M 0.765625 0 L 0.765625 -6.515625 L 3 -6.515625 L 3 -5.5625 L 3.03125 -5.5625 C 3.050781 -5.601562 3.078125 -5.644531 3.109375 -5.6875 C 3.148438 -5.738281 3.234375 -5.828125 3.359375 -5.953125 C 3.484375 -6.085938 3.617188 -6.203125 3.765625 -6.296875 C 3.910156 -6.398438 4.097656 -6.492188 4.328125 -6.578125 C 4.554688 -6.660156 4.789062 -6.703125 5.03125 -6.703125 C 5.269531 -6.703125 5.507812 -6.664062 5.75 -6.59375 C 5.988281 -6.53125 6.160156 -6.460938 6.265625 -6.390625 L 6.4375 -6.296875 L 5.5 -4.390625 C 5.226562 -4.628906 4.84375 -4.75 4.34375 -4.75 C 4.070312 -4.75 3.835938 -4.6875 3.640625 -4.5625 C 3.441406 -4.445312 3.300781 -4.300781 3.21875 -4.125 C 3.144531 -3.957031 3.085938 -3.816406 3.046875 -3.703125 C 3.015625 -3.585938 3 -3.492188 3 -3.421875 L 3 0 Z M 0.765625 0 "/></g></g></g><g fill="#922724" fill-opacity="1"><g transform="translate(49.940184, 31.244195)"><g><path d="M 7.34375 -2.9375 L 2.625 -2.9375 C 2.625 -2.488281 2.769531 -2.148438 3.0625 -1.921875 C 3.363281 -1.703125 3.6875 -1.59375 4.03125 -1.59375 C 4.394531 -1.59375 4.679688 -1.640625 4.890625 -1.734375 C 5.109375 -1.835938 5.351562 -2.035156 5.625 -2.328125 L 7.25 -1.515625 C 6.570312 -0.378906 5.445312 0.1875 3.875 0.1875 C 2.882812 0.1875 2.039062 -0.144531 1.34375 -0.8125 C 0.644531 -1.488281 0.296875 -2.300781 0.296875 -3.25 C 0.296875 -4.195312 0.644531 -5.007812 1.34375 -5.6875 C 2.039062 -6.363281 2.882812 -6.703125 3.875 -6.703125 C 4.90625 -6.703125 5.742188 -6.398438 6.390625 -5.796875 C 7.035156 -5.203125 7.359375 -4.351562 7.359375 -3.25 C 7.359375 -3.09375 7.351562 -2.988281 7.34375 -2.9375 Z M 2.6875 -4.1875 L 5.15625 -4.1875 C 5.113281 -4.519531 4.984375 -4.773438 4.765625 -4.953125 C 4.546875 -5.140625 4.269531 -5.234375 3.9375 -5.234375 C 3.5625 -5.234375 3.265625 -5.132812 3.046875 -4.9375 C 2.828125 -4.75 2.707031 -4.5 2.6875 -4.1875 Z M 2.6875 -4.1875 "/></g></g></g><g fill="#922724" fill-opacity="1"><g transform="translate(56.956783, 31.244195)"><g><path d="M 3.59375 -6.703125 C 3.96875 -6.703125 4.332031 -6.65625 4.6875 -6.5625 C 5.050781 -6.476562 5.320312 -6.394531 5.5 -6.3125 L 5.765625 -6.1875 L 5.03125 -4.71875 C 4.53125 -4.988281 4.050781 -5.125 3.59375 -5.125 C 3.332031 -5.125 3.148438 -5.09375 3.046875 -5.03125 C 2.941406 -4.976562 2.890625 -4.878906 2.890625 -4.734375 C 2.890625 -4.703125 2.894531 -4.664062 2.90625 -4.625 C 2.914062 -4.59375 2.929688 -4.5625 2.953125 -4.53125 C 2.984375 -4.5 3.007812 -4.472656 3.03125 -4.453125 C 3.050781 -4.429688 3.082031 -4.410156 3.125 -4.390625 C 3.175781 -4.367188 3.21875 -4.347656 3.25 -4.328125 C 3.28125 -4.316406 3.328125 -4.296875 3.390625 -4.265625 C 3.460938 -4.242188 3.515625 -4.226562 3.546875 -4.21875 C 3.585938 -4.207031 3.644531 -4.1875 3.71875 -4.15625 C 3.800781 -4.132812 3.863281 -4.117188 3.90625 -4.109375 C 4.164062 -4.035156 4.394531 -3.953125 4.59375 -3.859375 C 4.789062 -3.765625 4.992188 -3.632812 5.203125 -3.46875 C 5.421875 -3.3125 5.585938 -3.109375 5.703125 -2.859375 C 5.828125 -2.617188 5.890625 -2.34375 5.890625 -2.03125 C 5.890625 -0.550781 4.859375 0.1875 2.796875 0.1875 C 2.335938 0.1875 1.894531 0.117188 1.46875 -0.015625 C 1.050781 -0.160156 0.753906 -0.304688 0.578125 -0.453125 L 0.296875 -0.6875 L 1.203125 -2.21875 C 1.273438 -2.15625 1.363281 -2.082031 1.46875 -2 C 1.582031 -1.925781 1.78125 -1.816406 2.0625 -1.671875 C 2.351562 -1.535156 2.601562 -1.46875 2.8125 -1.46875 C 3.28125 -1.46875 3.515625 -1.625 3.515625 -1.9375 C 3.515625 -2.082031 3.453125 -2.191406 3.328125 -2.265625 C 3.210938 -2.347656 3.015625 -2.441406 2.734375 -2.546875 C 2.453125 -2.648438 2.226562 -2.742188 2.0625 -2.828125 C 1.65625 -3.035156 1.332031 -3.273438 1.09375 -3.546875 C 0.863281 -3.816406 0.75 -4.171875 0.75 -4.609375 C 0.75 -5.265625 1.003906 -5.773438 1.515625 -6.140625 C 2.023438 -6.515625 2.71875 -6.703125 3.59375 -6.703125 Z M 3.59375 -6.703125 "/></g></g></g><g fill="#922724" fill-opacity="1"><g transform="translate(62.564989, 31.244195)"><g/></g></g><g fill="#922724" fill-opacity="1"><g transform="translate(65.394469, 31.244195)"><g><path d="M 3.140625 -10.46875 L 3.140625 -2.09375 L 6.75 -2.09375 L 6.75 0 L 0.765625 0 L 0.765625 -10.46875 Z M 3.140625 -10.46875 "/></g></g></g><g fill="#922724" fill-opacity="1"><g transform="translate(71.928914, 31.244195)"><g><path d="M 1.140625 -8.421875 L 3.71875 -10.65625 L 4.875 -9.203125 L 1.859375 -7.453125 Z M 0.765625 -6.515625 L 0.765625 0 L 3 0 L 3 -6.515625 Z M 0.765625 -6.515625 "/></g></g></g><g fill="#922724" fill-opacity="1"><g transform="translate(75.062909, 31.244195)"><g><path d="M 0.765625 0 L 0.765625 -6.515625 L 3 -6.515625 L 3 -5.828125 L 3.03125 -5.828125 C 3.613281 -6.410156 4.234375 -6.703125 4.890625 -6.703125 C 5.210938 -6.703125 5.53125 -6.65625 5.84375 -6.5625 C 6.164062 -6.476562 6.472656 -6.347656 6.765625 -6.171875 C 7.054688 -5.992188 7.289062 -5.742188 7.46875 -5.421875 C 7.65625 -5.097656 7.75 -4.71875 7.75 -4.28125 L 7.75 0 L 5.5 0 L 5.5 -3.671875 C 5.5 -4.015625 5.390625 -4.3125 5.171875 -4.5625 C 4.960938 -4.820312 4.6875 -4.953125 4.34375 -4.953125 C 4 -4.953125 3.6875 -4.816406 3.40625 -4.546875 C 3.132812 -4.285156 3 -3.992188 3 -3.671875 L 3 0 Z M 0.765625 0 "/></g></g></g><g fill="#922724" fill-opacity="1"><g transform="translate(82.815431, 31.244195)"><g><path d="M 7.34375 -2.9375 L 2.625 -2.9375 C 2.625 -2.488281 2.769531 -2.148438 3.0625 -1.921875 C 3.363281 -1.703125 3.6875 -1.59375 4.03125 -1.59375 C 4.394531 -1.59375 4.679688 -1.640625 4.890625 -1.734375 C 5.109375 -1.835938 5.351562 -2.035156 5.625 -2.328125 L 7.25 -1.515625 C 6.570312 -0.378906 5.445312 0.1875 3.875 0.1875 C 2.882812 0.1875 2.039062 -0.144531 1.34375 -0.8125 C 0.644531 -1.488281 0.296875 -2.300781 0.296875 -3.25 C 0.296875 -4.195312 0.644531 -5.007812 1.34375 -5.6875 C 2.039062 -6.363281 2.882812 -6.703125 3.875 -6.703125 C 4.90625 -6.703125 5.742188 -6.398438 6.390625 -5.796875 C 7.035156 -5.203125 7.359375 -4.351562 7.359375 -3.25 C 7.359375 -3.09375 7.351562 -2.988281 7.34375 -2.9375 Z M 2.6875 -4.1875 L 5.15625 -4.1875 C 5.113281 -4.519531 4.984375 -4.773438 4.765625 -4.953125 C 4.546875 -5.140625 4.269531 -5.234375 3.9375 -5.234375 C 3.5625 -5.234375 3.265625 -5.132812 3.046875 -4.9375 C 2.828125 -4.75 2.707031 -4.5 2.6875 -4.1875 Z M 2.6875 -4.1875 "/></g></g></g><g fill="#922724" fill-opacity="1"><g transform="translate(89.832029, 31.244195)"><g><path d="M 1.203125 -0.796875 C 0.597656 -1.460938 0.296875 -2.273438 0.296875 -3.234375 C 0.296875 -4.203125 0.597656 -5.019531 1.203125 -5.6875 C 1.816406 -6.363281 2.59375 -6.703125 3.53125 -6.703125 C 4.394531 -6.703125 5.101562 -6.429688 5.65625 -5.890625 L 5.65625 -6.515625 L 7.90625 -6.515625 L 7.90625 0 L 5.6875 0 L 5.6875 -0.734375 L 5.65625 -0.734375 C 5.101562 -0.117188 4.394531 0.1875 3.53125 0.1875 C 2.59375 0.1875 1.816406 -0.140625 1.203125 -0.796875 Z M 3.109375 -4.34375 C 2.816406 -4.0625 2.671875 -3.695312 2.671875 -3.25 C 2.671875 -2.800781 2.8125 -2.429688 3.09375 -2.140625 C 3.375 -1.859375 3.742188 -1.71875 4.203125 -1.71875 C 4.640625 -1.71875 5 -1.863281 5.28125 -2.15625 C 5.5625 -2.445312 5.703125 -2.8125 5.703125 -3.25 C 5.703125 -3.695312 5.554688 -4.0625 5.265625 -4.34375 C 4.972656 -4.632812 4.617188 -4.78125 4.203125 -4.78125 C 3.765625 -4.78125 3.398438 -4.632812 3.109375 -4.34375 Z M 3.109375 -4.34375 "/></g></g></g><g fill="#922724" fill-opacity="1"><g transform="translate(97.863688, 31.244195)"><g><path d="M 3.59375 -6.703125 C 3.96875 -6.703125 4.332031 -6.65625 4.6875 -6.5625 C 5.050781 -6.476562 5.320312 -6.394531 5.5 -6.3125 L 5.765625 -6.1875 L 5.03125 -4.71875 C 4.53125 -4.988281 4.050781 -5.125 3.59375 -5.125 C 3.332031 -5.125 3.148438 -5.09375 3.046875 -5.03125 C 2.941406 -4.976562 2.890625 -4.878906 2.890625 -4.734375 C 2.890625 -4.703125 2.894531 -4.664062 2.90625 -4.625 C 2.914062 -4.59375 2.929688 -4.5625 2.953125 -4.53125 C 2.984375 -4.5 3.007812 -4.472656 3.03125 -4.453125 C 3.050781 -4.429688 3.082031 -4.410156 3.125 -4.390625 C 3.175781 -4.367188 3.21875 -4.347656 3.25 -4.328125 C 3.28125 -4.316406 3.328125 -4.296875 3.390625 -4.265625 C 3.460938 -4.242188 3.515625 -4.226562 3.546875 -4.21875 C 3.585938 -4.207031 3.644531 -4.1875 3.71875 -4.15625 C 3.800781 -4.132812 3.863281 -4.117188 3.90625 -4.109375 C 4.164062 -4.035156 4.394531 -3.953125 4.59375 -3.859375 C 4.789062 -3.765625 4.992188 -3.632812 5.203125 -3.46875 C 5.421875 -3.3125 5.585938 -3.109375 5.703125 -2.859375 C 5.828125 -2.617188 5.890625 -2.34375 5.890625 -2.03125 C 5.890625 -0.550781 4.859375 0.1875 2.796875 0.1875 C 2.335938 0.1875 1.894531 0.117188 1.46875 -0.015625 C 1.050781 -0.160156 0.753906 -0.304688 0.578125 -0.453125 L 0.296875 -0.6875 L 1.203125 -2.21875 C 1.273438 -2.15625 1.363281 -2.082031 1.46875 -2 C 1.582031 -1.925781 1.78125 -1.816406 2.0625 -1.671875 C 2.351562 -1.535156 2.601562 -1.46875 2.8125 -1.46875 C 3.28125 -1.46875 3.515625 -1.625 3.515625 -1.9375 C 3.515625 -2.082031 3.453125 -2.191406 3.328125 -2.265625 C 3.210938 -2.347656 3.015625 -2.441406 2.734375 -2.546875 C 2.453125 -2.648438 2.226562 -2.742188 2.0625 -2.828125 C 1.65625 -3.035156 1.332031 -3.273438 1.09375 -3.546875 C 0.863281 -3.816406 0.75 -4.171875 0.75 -4.609375 C 0.75 -5.265625 1.003906 -5.773438 1.515625 -6.140625 C 2.023438 -6.515625 2.71875 -6.703125 3.59375 -6.703125 Z M 3.59375 -6.703125 "/></g></g></g></svg>